<mxfile host="app.diagrams.net" modified="2025-03-29T10:05:00.000Z" agent="Mozilla/5.0" etag="123456789" version="21.0.0" type="device">
  <diagram id="user-interface-design" name="User Interface Design for Smart Agriculture System">
    <mxGraphModel dx="1400" dy="800" grid="1" gridSize="10" guides="1" tooltips="1" connect="1" arrows="1" fold="1" page="1" pageScale="1" pageWidth="850" pageHeight="1100" math="0" shadow="0">
      <root>
        <mxCell id="0" />
        <mxCell id="1" parent="0" />
        
        <!-- Main Dashboard Container -->
        <mxCell id="2" value="Smart Agriculture Dashboard" style="swimlane;whiteSpace=wrap;html=1;startSize=30;fillColor=#dae8fc;strokeColor=#6c8ebf;fontSize=14;fontStyle=1" vertex="1" parent="1">
          <mxGeometry x="120" y="120" width="600" height="400" as="geometry" />
        </mxCell>
        
        <!-- Field Map View Panel -->
        <mxCell id="3" value="Field Map View" style="swimlane;whiteSpace=wrap;html=1;fillColor=#d5e8d4;strokeColor=#82b366;" vertex="1" parent="2">
          <mxGeometry x="20" y="40" width="340" height="200" as="geometry" />
        </mxCell>
        
        <!-- Mock field map with color-coded zones -->
        <mxCell id="4" value="" style="rounded=0;whiteSpace=wrap;html=1;fillColor=#dae8fc;strokeColor=#6c8ebf;" vertex="1" parent="3">
          <mxGeometry x="20" y="30" width="70" height="50" as="geometry" />
        </mxCell>
        
        <mxCell id="5" value="" style="rounded=0;whiteSpace=wrap;html=1;fillColor=#60a917;strokeColor=#2D7600;fontColor=#ffffff;" vertex="1" parent="3">
          <mxGeometry x="90" y="30" width="70" height="50" as="geometry" />
        </mxCell>
        
        <mxCell id="6" value="" style="rounded=0;whiteSpace=wrap;html=1;fillColor=#e3c800;strokeColor=#B09500;fontColor=#000000;" vertex="1" parent="3">
          <mxGeometry x="160" y="30" width="70" height="50" as="geometry" />
        </mxCell>
        
        <mxCell id="7" value="" style="rounded=0;whiteSpace=wrap;html=1;fillColor=#e51400;strokeColor=#B20000;fontColor=#ffffff;" vertex="1" parent="3">
          <mxGeometry x="230" y="30" width="70" height="50" as="geometry" />
        </mxCell>
        
        <mxCell id="8" value="" style="rounded=0;whiteSpace=wrap;html=1;fillColor=#008a00;strokeColor=#005700;fontColor=#ffffff;" vertex="1" parent="3">
          <mxGeometry x="20" y="80" width="70" height="50" as="geometry" />
        </mxCell>
        
        <mxCell id="9" value="" style="rounded=0;whiteSpace=wrap;html=1;fillColor=#1ba1e2;strokeColor=#006EAF;fontColor=#ffffff;" vertex="1" parent="3">
          <mxGeometry x="90" y="80" width="70" height="50" as="geometry" />
        </mxCell>
        
        <mxCell id="10" value="" style="rounded=0;whiteSpace=wrap;html=1;fillColor=#76608a;strokeColor=#432D57;fontColor=#ffffff;" vertex="1" parent="3">
          <mxGeometry x="160" y="80" width="70" height="50" as="geometry" />
        </mxCell>
        
        <mxCell id="11" value="" style="rounded=0;whiteSpace=wrap;html=1;fillColor=#a20025;strokeColor=#6F0000;fontColor=#ffffff;" vertex="1" parent="3">
          <mxGeometry x="230" y="80" width="70" height="50" as="geometry" />
        </mxCell>
        
        <mxCell id="12" value="" style="ellipse;whiteSpace=wrap;html=1;aspect=fixed;fillColor=#000000;" vertex="1" parent="3">
          <mxGeometry x="50" y="45" width="10" height="10" as="geometry" />
        </mxCell>
        
        <mxCell id="13" value="" style="ellipse;whiteSpace=wrap;html=1;aspect=fixed;fillColor=#000000;" vertex="1" parent="3">
          <mxGeometry x="120" y="45" width="10" height="10" as="geometry" />
        </mxCell>
        
        <mxCell id="14" value="" style="ellipse;whiteSpace=wrap;html=1;aspect=fixed;fillColor=#000000;" vertex="1" parent="3">
          <mxGeometry x="190" y="45" width="10" height="10" as="geometry" />
        </mxCell>
        
        <mxCell id="15" value="" style="ellipse;whiteSpace=wrap;html=1;aspect=fixed;fillColor=#000000;" vertex="1" parent="3">
          <mxGeometry x="260" y="45" width="10" height="10" as="geometry" />
        </mxCell>
        
        <mxCell id="16" value="" style="ellipse;whiteSpace=wrap;html=1;aspect=fixed;fillColor=#000000;" vertex="1" parent="3">
          <mxGeometry x="50" y="95" width="10" height="10" as="geometry" />
        </mxCell>
        
        <mxCell id="17" value="" style="ellipse;whiteSpace=wrap;html=1;aspect=fixed;fillColor=#000000;" vertex="1" parent="3">
          <mxGeometry x="120" y="95" width="10" height="10" as="geometry" />
        </mxCell>
        
        <mxCell id="18" value="" style="ellipse;whiteSpace=wrap;html=1;aspect=fixed;fillColor=#000000;" vertex="1" parent="3">
          <mxGeometry x="190" y="95" width="10" height="10" as="geometry" />
        </mxCell>
        
        <mxCell id="19" value="" style="ellipse;whiteSpace=wrap;html=1;aspect=fixed;fillColor=#000000;" vertex="1" parent="3">
          <mxGeometry x="260" y="95" width="10" height="10" as="geometry" />
        </mxCell>
        
        <mxCell id="20" value="Soil Moisture Legend" style="text;html=1;strokeColor=none;fillColor=none;align=center;verticalAlign=middle;whiteSpace=wrap;rounded=0;" vertex="1" parent="3">
          <mxGeometry x="20" y="140" width="120" height="20" as="geometry" />
        </mxCell>
        
        <mxCell id="21" value="" style="rounded=0;whiteSpace=wrap;html=1;fillColor=#60a917;strokeColor=#2D7600;fontColor=#ffffff;" vertex="1" parent="3">
          <mxGeometry x="20" y="160" width="20" height="10" as="geometry" />
        </mxCell>
        
        <mxCell id="22" value="High" style="text;html=1;strokeColor=none;fillColor=none;align=left;verticalAlign=middle;whiteSpace=wrap;rounded=0;" vertex="1" parent="3">
          <mxGeometry x="45" y="155" width="40" height="20" as="geometry" />
        </mxCell>
        
        <mxCell id="23" value="" style="rounded=0;whiteSpace=wrap;html=1;fillColor=#e3c800;strokeColor=#B09500;fontColor=#000000;" vertex="1" parent="3">
          <mxGeometry x="90" y="160" width="20" height="10" as="geometry" />
        </mxCell>
        
        <mxCell id="24" value="Medium" style="text;html=1;strokeColor=none;fillColor=none;align=left;verticalAlign=middle;whiteSpace=wrap;rounded=0;" vertex="1" parent="3">
          <mxGeometry x="115" y="155" width="50" height="20" as="geometry" />
        </mxCell>
        
        <mxCell id="25" value="" style="rounded=0;whiteSpace=wrap;html=1;fillColor=#e51400;strokeColor=#B20000;fontColor=#ffffff;" vertex="1" parent="3">
          <mxGeometry x="170" y="160" width="20" height="10" as="geometry" />
        </mxCell>
        
        <mxCell id="26" value="Low" style="text;html=1;strokeColor=none;fillColor=none;align=left;verticalAlign=middle;whiteSpace=wrap;rounded=0;" vertex="1" parent="3">
          <mxGeometry x="195" y="155" width="40" height="20" as="geometry" />
        </mxCell>
        
        <mxCell id="27" value="" style="ellipse;whiteSpace=wrap;html=1;aspect=fixed;fillColor=#000000;" vertex="1" parent="3">
          <mxGeometry x="250" y="160" width="10" height="10" as="geometry" />
        </mxCell>
        
        <mxCell id="28" value="Sensor" style="text;html=1;strokeColor=none;fillColor=none;align=left;verticalAlign=middle;whiteSpace=wrap;rounded=0;" vertex="1" parent="3">
          <mxGeometry x="265" y="155" width="50" height="20" as="geometry" />
        </mxCell>
        
        <!-- Statistics Panel -->
        <mxCell id="29" value="Statistics Panel" style="swimlane;whiteSpace=wrap;html=1;fillColor=#ffe6cc;strokeColor=#d79b00;" vertex="1" parent="2">
          <mxGeometry x="20" y="250" width="340" height="130" as="geometry" />
        </mxCell>
        
        <!-- Mock graphs for statistics -->
        <mxCell id="30" value="" style="rounded=0;whiteSpace=wrap;html=1;fillColor=#f5f5f5;strokeColor=#666666;fontColor=#333333;" vertex="1" parent="29">
          <mxGeometry x="20" y="30" width="140" height="80" as="geometry" />
        </mxCell>
        
        <mxCell id="31" value="" style="rounded=0;whiteSpace=wrap;html=1;fillColor=#f5f5f5;strokeColor=#666666;fontColor=#333333;" vertex="1" parent="29">
          <mxGeometry x="180" y="30" width="140" height="80" as="geometry" />
        </mxCell>
        
        <mxCell id="32" value="Moisture" style="text;html=1;strokeColor=none;fillColor=none;align=center;verticalAlign=middle;whiteSpace=wrap;rounded=0;" vertex="1" parent="29">
          <mxGeometry x="60" y="110" width="60" height="20" as="geometry" />
        </mxCell>
        
        <mxCell id="33" value="Temperature" style="text;html=1;strokeColor=none;fillColor=none;align=center;verticalAlign=middle;whiteSpace=wrap;rounded=0;" vertex="1" parent="29">
          <mxGeometry x="220" y="110" width="60" height="20" as="geometry" />
        </mxCell>
        
        <!-- Alerts & Notifications Panel -->
        <mxCell id="34" value="Alerts &amp; Notifications" style="swimlane;whiteSpace=wrap;html=1;fillColor=#f8cecc;strokeColor=#b85450;" vertex="1" parent="2">
          <mxGeometry x="380" y="40" width="200" height="130" as="geometry" />
        </mxCell>
        
        <!-- Alert items -->
        <mxCell id="35" value="⚠️ Zone 3 moisture below threshold" style="text;html=1;strokeColor=none;fillColor=none;align=left;verticalAlign=middle;whiteSpace=wrap;rounded=0;" vertex="1" parent="34">
          <mxGeometry x="10" y="30" width="180" height="20" as="geometry" />
        </mxCell>
        
        <mxCell id="36" value="⚠️ Sensor S7 battery low" style="text;html=1;strokeColor=none;fillColor=none;align=left;verticalAlign=middle;whiteSpace=wrap;rounded=0;" vertex="1" parent="34">
          <mxGeometry x="10" y="50" width="180" height="20" as="geometry" />
        </mxCell>
        
        <mxCell id="37" value="✓ Irrigation completed in Zone 1" style="text;html=1;strokeColor=none;fillColor=none;align=left;verticalAlign=middle;whiteSpace=wrap;rounded=0;" vertex="1" parent="34">
          <mxGeometry x="10" y="70" width="180" height="20" as="geometry" />
        </mxCell>
        
        <mxCell id="38" value="✓ System check completed" style="text;html=1;strokeColor=none;fillColor=none;align=left;verticalAlign=middle;whiteSpace=wrap;rounded=0;" vertex="1" parent="34">
          <mxGeometry x="10" y="90" width="180" height="20" as="geometry" />
        </mxCell>
        
        <!-- Irrigation Controls Panel -->
        <mxCell id="39" value="Irrigation Controls" style="swimlane;whiteSpace=wrap;html=1;fillColor=#e1d5e7;strokeColor=#9673a6;" vertex="1" parent="2">
          <mxGeometry x="380" y="180" width="200" height="200" as="geometry" />
        </mxCell>
        
        <!-- Control buttons -->
        <mxCell id="40" value="Manual" style="rounded=1;whiteSpace=wrap;html=1;fillColor=#f5f5f5;strokeColor=#666666;fontColor=#333333;" vertex="1" parent="39">
          <mxGeometry x="20" y="40" width="70" height="30" as="geometry" />
        </mxCell>
        
        <mxCell id="41" value="Auto" style="rounded=1;whiteSpace=wrap;html=1;fillColor=#d5e8d4;strokeColor=#82b366;" vertex="1" parent="39">
          <mxGeometry x="110" y="40" width="70" height="30" as="geometry" />
        </mxCell>
        
        <mxCell id="42" value="Zone Selection:" style="text;html=1;strokeColor=none;fillColor=none;align=left;verticalAlign=middle;whiteSpace=wrap;rounded=0;" vertex="1" parent="39">
          <mxGeometry x="20" y="80" width="100" height="20" as="geometry" />
        </mxCell>
        
        <mxCell id="43" value="□ Zone 1" style="text;html=1;strokeColor=none;fillColor=none;align=left;verticalAlign=middle;whiteSpace=wrap;rounded=0;" vertex="1" parent="39">
          <mxGeometry x="20" y="100" width="60" height="20" as="geometry" />
        </mxCell>
        
        <mxCell id="44" value="□ Zone 2" style="text;html=1;strokeColor=none;fillColor=none;align=left;verticalAlign=middle;whiteSpace=wrap;rounded=0;" vertex="1" parent="39">
          <mxGeometry x="20" y="120" width="60" height="20" as="geometry" />
        </mxCell>
        
        <mxCell id="45" value="☑ Zone 3" style="text;html=1;strokeColor=none;fillColor=none;align=left;verticalAlign=middle;whiteSpace=wrap;rounded=0;" vertex="1" parent="39">
          <mxGeometry x="20" y="140" width="60" height="20" as="geometry" />
        </mxCell>
        
        <mxCell id="46" value="Duration: 15 min" style="text;html=1;strokeColor=none;fillColor=none;align=left;verticalAlign=middle;whiteSpace=wrap;rounded=0;" vertex="1" parent="39">
          <mxGeometry x="110" y="100" width="90" height="20" as="geometry" />
        </mxCell>
        
        <mxCell id="47" value="Start Irrigation" style="rounded=1;whiteSpace=wrap;html=1;fillColor=#d5e8d4;strokeColor=#82b366;" vertex="1" parent="39">
          <mxGeometry x="40" y="160" width="120" height="30" as="geometry" />
        </mxCell>
      </root>
    </mxGraphModel>
  </diagram>
</mxfile>